<svg xmlns="http://www.w3.org/2000/svg"  viewBox="0 0 72 72" width="64px" height="64px"><path d="M46.603,14C57.173,14,58,14.827,58,25.397v21.277C58,57.178,57.178,58,46.674,58H25.326C14.822,58,14,57.178,14,46.674	V25.326C14,14.822,14.822,14,25.326,14H46.603z M30.202,44.705V31.316h-4.161v13.389H30.202z M28.122,29.401	c1.337,0,2.425-1.088,2.425-2.426c0-1.337-1.088-2.425-2.425-2.425c-1.34,0-2.426,1.086-2.426,2.425S26.78,29.401,28.122,29.401z M45.812,44.705v-7.343c0-3.605-0.779-6.378-4.992-6.378c-2.024,0-3.381,1.11-3.937,2.162h-0.056v-1.829h-3.992v13.389h4.158v-6.624	c0-1.746,0.333-3.437,2.498-3.437c2.134,0,2.162,1.997,2.162,3.55v6.511H45.812z"/></svg>