<svg id="visual" viewBox="0 0 900 600" width="900" height="600" xmlns="http://www.w3.org/2000/svg" xmlns:xlink="http://www.w3.org/1999/xlink" version="1.1"><rect x="0" y="0" width="900" height="600" fill="#002233"></rect><path d="M0 366L15 364C30 362 60 358 90 360C120 362 150 370 180 379.7C210 389.3 240 400.7 270 396.7C300 392.7 330 373.3 360 371.8C390 370.3 420 386.7 450 389.5C480 392.3 510 381.7 540 380.2C570 378.7 600 386.3 630 390.3C660 394.3 690 394.7 720 399C750 403.3 780 411.7 810 406.5C840 401.3 870 382.7 885 373.3L900 364L900 601L885 601C870 601 840 601 810 601C780 601 750 601 720 601C690 601 660 601 630 601C600 601 570 601 540 601C510 601 480 601 450 601C420 601 390 601 360 601C330 601 300 601 270 601C240 601 210 601 180 601C150 601 120 601 90 601C60 601 30 601 15 601L0 601Z" fill="#ff0303"></path><path d="M0 457L15 451.8C30 446.7 60 436.3 90 434.7C120 433 150 440 180 434.8C210 429.7 240 412.3 270 412.5C300 412.7 330 430.3 360 441.8C390 453.3 420 458.7 450 458.2C480 457.7 510 451.3 540 451.2C570 451 600 457 630 454.7C660 452.3 690 441.7 720 444C750 446.3 780 461.7 810 457.8C840 454 870 431 885 419.5L900 408L900 601L885 601C870 601 840 601 810 601C780 601 750 601 720 601C690 601 660 601 630 601C600 601 570 601 540 601C510 601 480 601 450 601C420 601 390 601 360 601C330 601 300 601 270 601C240 601 210 601 180 601C150 601 120 601 90 601C60 601 30 601 15 601L0 601Z" fill="#ff6a47"></path><path d="M0 507L15 495.3C30 483.7 60 460.3 90 449.2C120 438 150 439 180 448C210 457 240 474 270 479.5C300 485 330 479 360 471C390 463 420 453 450 456C480 459 510 475 540 482.5C570 490 600 489 630 492C660 495 690 502 720 496.2C750 490.3 780 471.7 810 466.7C840 461.7 870 470.3 885 474.7L900 479L900 601L885 601C870 601 840 601 810 601C780 601 750 601 720 601C690 601 660 601 630 601C600 601 570 601 540 601C510 601 480 601 450 601C420 601 390 601 360 601C330 601 300 601 270 601C240 601 210 601 180 601C150 601 120 601 90 601C60 601 30 601 15 601L0 601Z" fill="#ff9e82"></path><path d="M0 538L15 535.7C30 533.3 60 528.7 90 525.5C120 522.3 150 520.7 180 514.8C210 509 240 499 270 499.7C300 500.3 330 511.7 360 511.5C390 511.3 420 499.7 450 496.5C480 493.3 510 498.7 540 501.2C570 503.7 600 503.3 630 503C660 502.7 690 502.3 720 504.5C750 506.7 780 511.3 810 514.8C840 518.3 870 520.7 885 521.8L900 523L900 601L885 601C870 601 840 601 810 601C780 601 750 601 720 601C690 601 660 601 630 601C600 601 570 601 540 601C510 601 480 601 450 601C420 601 390 601 360 601C330 601 300 601 270 601C240 601 210 601 180 601C150 601 120 601 90 601C60 601 30 601 15 601L0 601Z" fill="#ffcfbf"></path><path d="M0 524L15 527.7C30 531.3 60 538.7 90 542.2C120 545.7 150 545.3 180 544C210 542.7 240 540.3 270 540.3C300 540.3 330 542.7 360 546.2C390 549.7 420 554.3 450 556.8C480 559.3 510 559.7 540 562.2C570 564.7 600 569.3 630 570.2C660 571 690 568 720 560C750 552 780 539 810 534.3C840 529.7 870 533.3 885 535.2L900 537L900 601L885 601C870 601 840 601 810 601C780 601 750 601 720 601C690 601 660 601 630 601C600 601 570 601 540 601C510 601 480 601 450 601C420 601 390 601 360 601C330 601 300 601 270 601C240 601 210 601 180 601C150 601 120 601 90 601C60 601 30 601 15 601L0 601Z" fill="#ffffff"></path></svg>